G04 #@! TF.GenerationSoftware,KiCad,Pcbnew,(5.1.12)-1*
G04 #@! TF.CreationDate,2022-01-12T16:51:38+09:00*
G04 #@! TF.ProjectId,NHK2022_MD_product,4e484b32-3032-4325-9f4d-445f70726f64,rev?*
G04 #@! TF.SameCoordinates,PX3c8eee0PY853a720*
G04 #@! TF.FileFunction,Soldermask,Bot*
G04 #@! TF.FilePolarity,Negative*
%FSLAX46Y46*%
G04 Gerber Fmt 4.6, Leading zero omitted, Abs format (unit mm)*
G04 Created by KiCad (PCBNEW (5.1.12)-1) date 2022-01-12 16:51:38*
%MOMM*%
%LPD*%
G01*
G04 APERTURE LIST*
%ADD10O,2.000000X0.900000*%
%ADD11O,1.700000X0.900000*%
%ADD12C,0.600000*%
%ADD13C,3.200000*%
%ADD14R,1.600000X1.600000*%
%ADD15C,1.600000*%
%ADD16C,2.000000*%
%ADD17R,2.000000X2.000000*%
%ADD18R,1.700000X1.700000*%
%ADD19O,1.700000X1.700000*%
%ADD20C,2.400000*%
%ADD21O,2.400000X2.400000*%
%ADD22C,1.700000*%
%ADD23C,3.716000*%
%ADD24O,1.300000X2.600000*%
%ADD25R,3.716000X3.716000*%
%ADD26O,2.400000X1.200000*%
%ADD27O,1.700000X2.000000*%
%ADD28O,1.700000X1.950000*%
G04 APERTURE END LIST*
D10*
X-4930000Y23515000D03*
X-4930000Y14875000D03*
D11*
X-9100000Y23515000D03*
X-9100000Y14875000D03*
D12*
X-5410000Y16305000D03*
X-5410000Y22085000D03*
D13*
X-8700000Y-15050000D03*
X127300000Y-15050000D03*
X59300000Y-15050000D03*
X127300000Y52950000D03*
X59300000Y52950000D03*
X-8700000Y52950000D03*
D14*
X124460000Y26670000D03*
D15*
X124460000Y28670000D03*
D16*
X124460000Y21510000D03*
D17*
X124460000Y16510000D03*
X124460000Y5715000D03*
D16*
X124460000Y10715000D03*
D14*
X30300000Y8760000D03*
D15*
X32800000Y8760000D03*
X18300000Y7260000D03*
D14*
X18300000Y4760000D03*
D18*
X7750000Y9450000D03*
D19*
X7750000Y11990000D03*
D20*
X59660000Y40780000D03*
D21*
X59660000Y35700000D03*
D22*
X15875000Y32385000D03*
X15875000Y29885000D03*
X15875000Y27385000D03*
D10*
X-5055000Y11305000D03*
X-5055000Y2665000D03*
D11*
X-9225000Y11305000D03*
X-9225000Y2665000D03*
D12*
X-5535000Y4095000D03*
X-5535000Y9875000D03*
D23*
X111335000Y-3175000D03*
X118535000Y-3175000D03*
D24*
X108185000Y-9175000D03*
X121685000Y-9175000D03*
D23*
X114015000Y44240000D03*
D25*
X114015000Y37040000D03*
D26*
X120015000Y47390000D03*
X120015000Y33890000D03*
G36*
G01*
X103085000Y47740000D02*
X103085000Y46240000D01*
G75*
G02*
X102835000Y45990000I-250000J0D01*
G01*
X101635000Y45990000D01*
G75*
G02*
X101385000Y46240000I0J250000D01*
G01*
X101385000Y47740000D01*
G75*
G02*
X101635000Y47990000I250000J0D01*
G01*
X102835000Y47990000D01*
G75*
G02*
X103085000Y47740000I0J-250000D01*
G01*
G37*
D27*
X99735000Y46990000D03*
G36*
G01*
X33870000Y47715000D02*
X33870000Y46265000D01*
G75*
G02*
X33620000Y46015000I-250000J0D01*
G01*
X32420000Y46015000D01*
G75*
G02*
X32170000Y46265000I0J250000D01*
G01*
X32170000Y47715000D01*
G75*
G02*
X32420000Y47965000I250000J0D01*
G01*
X33620000Y47965000D01*
G75*
G02*
X33870000Y47715000I0J-250000D01*
G01*
G37*
D28*
X30520000Y46990000D03*
X28020000Y46990000D03*
X25520000Y46990000D03*
X23020000Y46990000D03*
X20520000Y46990000D03*
D18*
X-1905000Y42545000D03*
D19*
X-1905000Y40005000D03*
X-1905000Y37465000D03*
X-1905000Y34925000D03*
X-1905000Y32385000D03*
X-1905000Y29845000D03*
X635000Y46355000D03*
X3175000Y46355000D03*
X5715000Y46355000D03*
X8255000Y46355000D03*
X10795000Y46355000D03*
D18*
X13335000Y46355000D03*
G36*
G01*
X5500000Y-9615000D02*
X5500000Y-8165000D01*
G75*
G02*
X5750000Y-7915000I250000J0D01*
G01*
X6950000Y-7915000D01*
G75*
G02*
X7200000Y-8165000I0J-250000D01*
G01*
X7200000Y-9615000D01*
G75*
G02*
X6950000Y-9865000I-250000J0D01*
G01*
X5750000Y-9865000D01*
G75*
G02*
X5500000Y-9615000I0J250000D01*
G01*
G37*
D28*
X8850000Y-8890000D03*
X11350000Y-8890000D03*
X13850000Y-8890000D03*
X16350000Y-8890000D03*
D27*
X31075000Y-8890000D03*
G36*
G01*
X27725000Y-9640000D02*
X27725000Y-8140000D01*
G75*
G02*
X27975000Y-7890000I250000J0D01*
G01*
X29175000Y-7890000D01*
G75*
G02*
X29425000Y-8140000I0J-250000D01*
G01*
X29425000Y-9640000D01*
G75*
G02*
X29175000Y-9890000I-250000J0D01*
G01*
X27975000Y-9890000D01*
G75*
G02*
X27725000Y-9640000I0J250000D01*
G01*
G37*
G36*
G01*
X42965000Y-9640000D02*
X42965000Y-8140000D01*
G75*
G02*
X43215000Y-7890000I250000J0D01*
G01*
X44415000Y-7890000D01*
G75*
G02*
X44665000Y-8140000I0J-250000D01*
G01*
X44665000Y-9640000D01*
G75*
G02*
X44415000Y-9890000I-250000J0D01*
G01*
X43215000Y-9890000D01*
G75*
G02*
X42965000Y-9640000I0J250000D01*
G01*
G37*
X46315000Y-8890000D03*
D12*
X104140000Y43180000D03*
X104775000Y41910000D03*
X104775000Y40640000D03*
X104775000Y39370000D03*
X104775000Y38100000D03*
X103505000Y38100000D03*
X102235000Y38100000D03*
X100965000Y38100000D03*
X99695000Y38100000D03*
X98425000Y38100000D03*
X97155000Y38100000D03*
X95885000Y38100000D03*
X107315000Y43180000D03*
X107315000Y41910000D03*
X107315000Y40640000D03*
X107315000Y39370000D03*
X107315000Y38100000D03*
X107950000Y36830000D03*
X109220000Y35560000D03*
X110490000Y36195000D03*
X111125000Y37465000D03*
X105410000Y35560000D03*
X106045000Y34925000D03*
X104140000Y35560000D03*
X102870000Y35560000D03*
X101600000Y35560000D03*
X100330000Y35560000D03*
X99060000Y35560000D03*
X97790000Y35560000D03*
X96520000Y35560000D03*
X95250000Y35560000D03*
X93980000Y35560000D03*
X92710000Y35560000D03*
X104775000Y34925000D03*
X103505000Y34925000D03*
X102235000Y34925000D03*
X100965000Y34925000D03*
X99695000Y34925000D03*
X98425000Y34925000D03*
X97155000Y34925000D03*
X95885000Y34925000D03*
X94615000Y34925000D03*
X93345000Y34925000D03*
X106045000Y31115000D03*
X106045000Y29845000D03*
X106045000Y28575000D03*
X104775000Y31115000D03*
X103505000Y31115000D03*
X102235000Y31115000D03*
X100965000Y31115000D03*
X99695000Y31115000D03*
X99060000Y30480000D03*
X99060000Y29210000D03*
X99060000Y27940000D03*
X99060000Y26670000D03*
X99060000Y25400000D03*
X99060000Y24130000D03*
X102870000Y30480000D03*
X101600000Y30480000D03*
X100330000Y30480000D03*
X99695000Y29845000D03*
X104140000Y30480000D03*
X105410000Y30480000D03*
X105410000Y29210000D03*
X99695000Y28575000D03*
X99695000Y27305000D03*
X99695000Y26035000D03*
X99695000Y24765000D03*
X95250000Y33655000D03*
X95250000Y32385000D03*
X95250000Y31115000D03*
X95250000Y29845000D03*
X95250000Y28575000D03*
X95250000Y27305000D03*
X94615000Y33020000D03*
X94615000Y31750000D03*
X94615000Y30480000D03*
X94615000Y29210000D03*
X94615000Y27940000D03*
X97790000Y38735000D03*
X99060000Y38735000D03*
X100330000Y38735000D03*
X101600000Y38735000D03*
X102870000Y38735000D03*
X104140000Y38735000D03*
X104140000Y40005000D03*
X104140000Y41275000D03*
X107315000Y44450000D03*
X107950000Y42545000D03*
X107950000Y41275000D03*
X107950000Y40005000D03*
X107950000Y38735000D03*
X109220000Y36830000D03*
X109855000Y31115000D03*
X109855000Y29845000D03*
X109855000Y28575000D03*
X111125000Y29845000D03*
X110490000Y30480000D03*
X110490000Y29210000D03*
X95250000Y22860000D03*
X95250000Y21590000D03*
X95250000Y20320000D03*
X95250000Y19050000D03*
X95250000Y17780000D03*
X95250000Y16510000D03*
X95250000Y15240000D03*
X95250000Y13970000D03*
X95250000Y12700000D03*
X94615000Y22225000D03*
X94615000Y20955000D03*
X94615000Y19685000D03*
X94615000Y18415000D03*
X94615000Y17145000D03*
X94615000Y15875000D03*
X94615000Y14605000D03*
X94615000Y13335000D03*
X99060000Y20955000D03*
X99060000Y19685000D03*
X99060000Y18415000D03*
X99060000Y17145000D03*
X99060000Y15875000D03*
X99060000Y14605000D03*
X99060000Y13335000D03*
X99060000Y12065000D03*
X99060000Y10795000D03*
X98425000Y9525000D03*
X97155000Y8890000D03*
X95885000Y8890000D03*
X94615000Y8890000D03*
X99695000Y20320000D03*
X99695000Y19050000D03*
X99695000Y17780000D03*
X99695000Y16510000D03*
X99695000Y15240000D03*
X99695000Y13970000D03*
X99695000Y12700000D03*
X99695000Y11430000D03*
X95250000Y8255000D03*
X96520000Y8255000D03*
X99695000Y9525000D03*
X85725000Y12700000D03*
X84455000Y12700000D03*
X83185000Y12700000D03*
X81915000Y12700000D03*
X85725000Y8890000D03*
X81915000Y8890000D03*
X81915000Y7620000D03*
X81915000Y6350000D03*
X81915000Y5080000D03*
X81915000Y3810000D03*
X85725000Y7620000D03*
X85725000Y6350000D03*
X85725000Y5080000D03*
X83185000Y2540000D03*
X82550000Y3175000D03*
X84455000Y1270000D03*
X85090000Y635000D03*
X85725000Y0D03*
X88265000Y0D03*
X89535000Y0D03*
X90805000Y0D03*
X93980000Y0D03*
X97155000Y0D03*
X98425000Y0D03*
X99695000Y0D03*
X100965000Y0D03*
X102235000Y0D03*
X103505000Y0D03*
X86995000Y3810000D03*
X88265000Y3810000D03*
X89535000Y3810000D03*
X92075000Y3810000D03*
X93345000Y3810000D03*
X94615000Y3810000D03*
X95885000Y3810000D03*
X97155000Y3810000D03*
X98425000Y3810000D03*
X100965000Y3810000D03*
X102235000Y3810000D03*
X103505000Y3810000D03*
X104775000Y3810000D03*
X106045000Y3810000D03*
X110490000Y1270000D03*
X88900000Y4445000D03*
X87630000Y4445000D03*
X92710000Y4445000D03*
X93980000Y4445000D03*
X95250000Y4445000D03*
X96520000Y4445000D03*
X97790000Y4445000D03*
X101600000Y4445000D03*
X102870000Y4445000D03*
X104140000Y4445000D03*
X88900000Y-635000D03*
X90170000Y-635000D03*
X97790000Y-635000D03*
X99060000Y-635000D03*
X100330000Y-635000D03*
X101600000Y-635000D03*
X102870000Y-635000D03*
X106045000Y-1270000D03*
X106680000Y-1905000D03*
X107315000Y-2540000D03*
X85090000Y13335000D03*
X83820000Y13335000D03*
X82550000Y13335000D03*
X85725000Y24130000D03*
X84455000Y24130000D03*
X83185000Y24130000D03*
X81915000Y24130000D03*
X82550000Y23495000D03*
X83820000Y23495000D03*
X85090000Y23495000D03*
X86360000Y27940000D03*
X85090000Y27940000D03*
X83820000Y27940000D03*
X82550000Y27940000D03*
X81280000Y27940000D03*
X81915000Y28575000D03*
X83185000Y28575000D03*
X84455000Y28575000D03*
X85725000Y28575000D03*
X81280000Y22860000D03*
X81280000Y21590000D03*
X81280000Y20320000D03*
X81280000Y19050000D03*
X80645000Y18415000D03*
X79375000Y18415000D03*
X78740000Y17780000D03*
X78105000Y17145000D03*
X77470000Y16510000D03*
X76835000Y15875000D03*
X74930000Y14605000D03*
X74295000Y13970000D03*
X71755000Y11430000D03*
X71120000Y10795000D03*
X70485000Y10160000D03*
X69850000Y9525000D03*
X69215000Y8890000D03*
X68580000Y8255000D03*
X67945000Y7620000D03*
X67310000Y6985000D03*
X66675000Y6350000D03*
X66040000Y5715000D03*
X64770000Y5715000D03*
X62865000Y5715000D03*
X75565000Y20320000D03*
X74930000Y19685000D03*
X74295000Y19050000D03*
X72390000Y17145000D03*
X71120000Y15875000D03*
X70485000Y15240000D03*
X69850000Y14605000D03*
X69215000Y13970000D03*
X66675000Y11430000D03*
X66040000Y10795000D03*
X65405000Y10160000D03*
X64770000Y9525000D03*
X63500000Y9525000D03*
X62230000Y9525000D03*
X106045000Y19685000D03*
X106680000Y18415000D03*
X107950000Y17145000D03*
X107315000Y17780000D03*
X109855000Y20955000D03*
X110490000Y20320000D03*
X65405000Y0D03*
X66040000Y-635000D03*
X66675000Y-1270000D03*
X67310000Y-1905000D03*
X67945000Y-2540000D03*
X68580000Y-3175000D03*
X69215000Y-3810000D03*
X69850000Y-4445000D03*
X70485000Y-5080000D03*
X71120000Y-5715000D03*
X71755000Y-6350000D03*
X72390000Y-6985000D03*
X73025000Y-7620000D03*
X73660000Y-8255000D03*
X74295000Y-8890000D03*
X74930000Y-9525000D03*
X75565000Y-10160000D03*
X76200000Y-10795000D03*
X76835000Y-11430000D03*
X77470000Y-12065000D03*
X78105000Y-12700000D03*
X78740000Y-13335000D03*
X79375000Y-13970000D03*
X80645000Y-13970000D03*
X81915000Y-13970000D03*
X81915000Y-13970000D03*
X83185000Y-13970000D03*
X84455000Y-13970000D03*
X85725000Y-13970000D03*
X86995000Y-13970000D03*
X88265000Y-13970000D03*
X89535000Y-13970000D03*
X90805000Y-13970000D03*
X92075000Y-13970000D03*
X93345000Y-13970000D03*
X94615000Y-13970000D03*
X95885000Y-13970000D03*
X97155000Y-13970000D03*
X98425000Y-13970000D03*
X99695000Y-13970000D03*
X100965000Y-13970000D03*
X102235000Y-13970000D03*
X103505000Y-13970000D03*
X104775000Y-13970000D03*
X105410000Y-13335000D03*
X106045000Y-12700000D03*
X106680000Y-12065000D03*
X107315000Y-11430000D03*
X109855000Y-8890000D03*
X110490000Y-8255000D03*
X111125000Y-7620000D03*
X111760000Y-6985000D03*
X112395000Y-6350000D03*
X113030000Y-5715000D03*
X113665000Y-5080000D03*
X114300000Y-4445000D03*
X114935000Y-3810000D03*
X62230000Y-2540000D03*
X64135000Y-4445000D03*
X64770000Y-5080000D03*
X65405000Y-5715000D03*
X66040000Y-6350000D03*
X66675000Y-6985000D03*
X67310000Y-7620000D03*
X67945000Y-8255000D03*
X68580000Y-8890000D03*
X69215000Y-9525000D03*
X69850000Y-10160000D03*
X70485000Y-10795000D03*
X71120000Y-11430000D03*
X71755000Y-12065000D03*
X72390000Y-12700000D03*
X73025000Y-13335000D03*
X73660000Y-13970000D03*
X74295000Y-14605000D03*
X74930000Y-15240000D03*
X75565000Y-15875000D03*
X76200000Y-16510000D03*
X76835000Y-17145000D03*
X77470000Y-17780000D03*
X78740000Y-17780000D03*
X80010000Y-17780000D03*
X81280000Y-17780000D03*
X82550000Y-17780000D03*
X83820000Y-17780000D03*
X85090000Y-17780000D03*
X86360000Y-17780000D03*
X87630000Y-17780000D03*
X88900000Y-17780000D03*
X90170000Y-17780000D03*
X91440000Y-17780000D03*
X92710000Y-17780000D03*
X93980000Y-17780000D03*
X95250000Y-17780000D03*
X96520000Y-17780000D03*
X97790000Y-17780000D03*
X99060000Y-17780000D03*
X100330000Y-17780000D03*
X101600000Y-17780000D03*
X102870000Y-17780000D03*
X104140000Y-17780000D03*
X105410000Y-17780000D03*
X106680000Y-17780000D03*
X107950000Y-16510000D03*
X108585000Y-15875000D03*
X109220000Y-15240000D03*
X109855000Y-14605000D03*
X110490000Y-13970000D03*
X111125000Y-13335000D03*
X111760000Y-12700000D03*
X112395000Y-12065000D03*
X113030000Y-11430000D03*
X113665000Y-10795000D03*
X114300000Y-10160000D03*
X114935000Y-9525000D03*
X115570000Y-8890000D03*
X116205000Y-8255000D03*
X116840000Y-7620000D03*
X117475000Y-6985000D03*
X118110000Y-6350000D03*
X120015000Y13970000D03*
X120015000Y12700000D03*
X120015000Y11430000D03*
X120015000Y10160000D03*
X120015000Y8890000D03*
X118745000Y6985000D03*
X117475000Y6985000D03*
X118110000Y7620000D03*
X119380000Y8255000D03*
X119380000Y9525000D03*
X119380000Y10795000D03*
X119380000Y12065000D03*
X119380000Y13335000D03*
X116840000Y3810000D03*
X118110000Y3810000D03*
X119380000Y3810000D03*
X120015000Y4445000D03*
X120650000Y5080000D03*
X121285000Y5715000D03*
X121920000Y5080000D03*
X122555000Y4445000D03*
X123190000Y3810000D03*
X118745000Y3175000D03*
X117475000Y3175000D03*
X115570000Y19685000D03*
X116840000Y18415000D03*
X116840000Y17145000D03*
X116840000Y15875000D03*
X116840000Y14605000D03*
X116840000Y13335000D03*
X116205000Y12700000D03*
X115570000Y12065000D03*
X114935000Y11430000D03*
X116205000Y19050000D03*
X121920000Y26035000D03*
X121285000Y25400000D03*
X120650000Y24765000D03*
X120015000Y24130000D03*
X118745000Y22860000D03*
X118110000Y22225000D03*
X117475000Y21590000D03*
X112395000Y32385000D03*
X113030000Y31750000D03*
X113665000Y31115000D03*
X114935000Y31115000D03*
X116205000Y31115000D03*
X116840000Y29845000D03*
X116840000Y28575000D03*
X114300000Y31750000D03*
X117475000Y29210000D03*
X101600000Y-1905000D03*
X100330000Y-3175000D03*
X99060000Y-4445000D03*
X97790000Y-5715000D03*
X89535000Y-10795000D03*
X90805000Y-10795000D03*
X92075000Y-10795000D03*
X93345000Y-10795000D03*
X94615000Y-10795000D03*
X95885000Y-10795000D03*
X97155000Y-10160000D03*
X98425000Y-8890000D03*
X99695000Y-7620000D03*
X100965000Y-6350000D03*
X102235000Y-5080000D03*
X103505000Y-3810000D03*
X104775000Y-2540000D03*
X119380000Y15240000D03*
X120650000Y18415000D03*
X121920000Y18415000D03*
X123190000Y18415000D03*
X80645000Y28575000D03*
X107950000Y-3175000D03*
X111760000Y0D03*
X79375000Y20320000D03*
X60960000Y7620000D03*
X88265000Y44450000D03*
X87630000Y28575000D03*
X78715000Y40475000D03*
X73660000Y27305000D03*
X99060000Y7620000D03*
X80645000Y-6350000D03*
X89535000Y-5080000D03*
X89535000Y42545000D03*
X89535000Y31750000D03*
X118110000Y12700000D03*
X111760000Y12700000D03*
X55340000Y44800000D03*
X55340000Y34600000D03*
X58216164Y28903836D03*
X58850000Y20400000D03*
X35030000Y-280000D03*
X26820000Y18130000D03*
X26610000Y20780000D03*
X25310000Y26510000D03*
X35310000Y19270000D03*
X35410000Y24380000D03*
X36510000Y25260000D03*
X36510000Y33550000D03*
X7500000Y22300000D03*
X7900000Y24040000D03*
X6160000Y35480000D03*
X6580000Y26460000D03*
X45720000Y0D03*
X21610000Y1710000D03*
X21570000Y-2590000D03*
X27650000Y5680000D03*
X28260000Y19790000D03*
X23020000Y25740000D03*
X24120000Y21480000D03*
X45720000Y46990000D03*
X45260000Y41735000D03*
X12065000Y4445000D03*
X36195000Y3175000D03*
X36830000Y-1905000D03*
X39940000Y17290000D03*
X40005000Y13335000D03*
X56515000Y12700000D03*
X58420000Y-4445000D03*
X107950000Y30480000D03*
X109220000Y18415000D03*
X113030000Y29845000D03*
X92075000Y36830000D03*
X97790000Y-7620000D03*
X0Y38100000D03*
X1905000Y36830000D03*
X2540000Y29845000D03*
X10795000Y29845000D03*
X10795000Y24130000D03*
X510000Y23520000D03*
X5388836Y22131164D03*
X3840000Y23090000D03*
X-6832500Y13817500D03*
X635000Y12700000D03*
X-635000Y0D03*
X22860000Y7620000D03*
X22225000Y3175000D03*
X-2960000Y26050000D03*
X-2750000Y21600000D03*
X-2540000Y15875000D03*
X-2540000Y9525000D03*
X14710000Y-20000D03*
X14710000Y-2540000D03*
X33850000Y30840000D03*
X33800000Y26930000D03*
X62865000Y0D03*
X24930000Y30176000D03*
X20955000Y43180000D03*
X24765000Y43180000D03*
X29570000Y25780000D03*
X30210000Y28600000D03*
X8660000Y23520000D03*
X8550000Y26890000D03*
X4445000Y38735000D03*
X4445000Y27305000D03*
X-310000Y18990000D03*
X3810000Y12480000D03*
X-1310000Y19580000D03*
X-1270000Y17870000D03*
X1905000Y7620000D03*
X2100010Y14499990D03*
X24320000Y41330000D03*
X24320000Y31350000D03*
X10795000Y41275000D03*
X23710000Y40590000D03*
X23614115Y31726472D03*
X8255000Y40640000D03*
X23060000Y39910000D03*
X22826880Y31584121D03*
X5715000Y40640000D03*
X22216880Y39240000D03*
X22027255Y31608686D03*
X5080000Y39370000D03*
X14990000Y22630000D03*
X3175000Y-2540000D03*
X3810000Y6350000D03*
X14605000Y8890000D03*
X10930000Y22200010D03*
X6985000Y-3175000D03*
X21040000Y17950000D03*
X15875000Y-4445000D03*
X18415000Y17780000D03*
X23350000Y17930000D03*
X25050000Y18060000D03*
X50165000Y-1905000D03*
X50165000Y-10160000D03*
X25400000Y11430000D03*
X50165000Y10795000D03*
X81801164Y-4331164D03*
X79638664Y-4181336D03*
X86360000Y4445000D03*
X78740000Y-7620000D03*
X88900000Y-6985000D03*
X80010000Y-10160000D03*
X92075000Y-8255000D03*
X85725000Y-2540000D03*
X95885000Y-5715000D03*
X83185000Y-9525000D03*
X91440000Y38735000D03*
X91440000Y31750000D03*
X91440000Y27940000D03*
X86995000Y20320000D03*
X93528836Y40456164D03*
X90805000Y41275000D03*
X73660000Y31115000D03*
X72390000Y21590000D03*
X21520000Y38110000D03*
X21292616Y31291971D03*
X30090000Y18569999D03*
X29920000Y22540000D03*
X31500000Y22580000D03*
X32020000Y40310000D03*
X45100000Y15900000D03*
X45150000Y21960000D03*
X33020000Y29380000D03*
X33070000Y21700000D03*
X57180000Y19150000D03*
X56130000Y28990000D03*
X44930000Y37090000D03*
X44490000Y14760000D03*
X21660000Y14940000D03*
X21818122Y17764180D03*
X81280000Y13335000D03*
X81915000Y1270000D03*
X83298836Y-4558836D03*
X83358836Y-6176164D03*
X76200000Y4445000D03*
X76200000Y15240000D03*
X25970000Y16480000D03*
X25970000Y17970000D03*
X54770000Y15200000D03*
X53850000Y20960000D03*
X41725686Y20744314D03*
X40150000Y21880000D03*
X67945000Y15240000D03*
X81280000Y41910000D03*
X71120000Y17780000D03*
X77470000Y36195000D03*
X81915000Y38100000D03*
X81915000Y41085000D03*
X17888565Y20538565D03*
X21118649Y24772913D03*
X24258565Y24881435D03*
X25920000Y24773763D03*
M02*
