M48
; DRILL file {KiCad (5.1.12)-1} date 01/12/22 16:52:01
; FORMAT={3:3/ absolute / metric / suppress leading zeros}
; #@! TF.CreationDate,2022-01-12T16:52:01+09:00
; #@! TF.GenerationSoftware,Kicad,Pcbnew,(5.1.12)-1
FMAT,2
METRIC,TZ
T1C0.300
T2C0.600
T3C0.800
T4C0.950
T5C1.000
T6C1.200
T7C2.700
T8C0.600
T9C3.200
%
G90
G05
T1
X-6832Y13817
X-2960Y26050
X-2750Y21600
X-2540Y15875
X-2540Y9525
X-1310Y19580
X-1270Y17870
X-635Y0
X-310Y18990
X0Y38100
X510Y23520
X635Y12700
X1905Y36830
X1905Y7620
X2100Y14500
X2540Y29845
X3175Y-2540
X3810Y12480
X3810Y6350
X3840Y23090
X4445Y38735
X4445Y27305
X5080Y39370
X5389Y22131
X5715Y40640
X6160Y35480
X6580Y26460
X6985Y-3175
X7500Y22300
X7900Y24040
X8255Y40640
X8550Y26890
X8660Y23520
X10795Y41275
X10795Y29845
X10795Y24130
X10930Y22200
X12065Y4445
X14605Y8890
X14710Y-20
X14710Y-2540
X14990Y22630
X15875Y-4445
X17889Y20539
X18415Y17780
X20955Y43180
X21040Y17950
X21119Y24773
X21293Y31292
X21520Y38110
X21570Y-2590
X21610Y1710
X21660Y14940
X21818Y17764
X22027Y31609
X22217Y39240
X22225Y3175
X22827Y31584
X22860Y7620
X23020Y25740
X23060Y39910
X23350Y17930
X23614Y31726
X23710Y40590
X24120Y21480
X24259Y24881
X24320Y41330
X24320Y31350
X24765Y43180
X24930Y30176
X25050Y18060
X25310Y26510
X25400Y11430
X25920Y24774
X25970Y17970
X25970Y16480
X26610Y20780
X26820Y18130
X27650Y5680
X28260Y19790
X29570Y25780
X29920Y22540
X30090Y18570
X30210Y28600
X31500Y22580
X32020Y40310
X33020Y29380
X33070Y21700
X33800Y26930
X33850Y30840
X35030Y-280
X35310Y19270
X35410Y24380
X36195Y3175
X36510Y33550
X36510Y25260
X36830Y-1905
X39940Y17290
X40005Y13335
X40150Y21880
X41726Y20744
X44490Y14760
X44930Y37090
X45100Y15900
X45150Y21960
X45260Y41735
X45720Y46990
X45720Y0
X50165Y10795
X50165Y-1905
X50165Y-10160
X53850Y20960
X54770Y15200
X55340Y44800
X55340Y34600
X56130Y28990
X56515Y12700
X57180Y19150
X58216Y28904
X58420Y-4445
X58850Y20400
X60960Y7620
X62230Y9525
X62230Y-2540
X62865Y5715
X62865Y0
X63500Y9525
X64135Y-4445
X64770Y9525
X64770Y5715
X64770Y-5080
X65405Y10160
X65405Y0
X65405Y-5715
X66040Y10795
X66040Y5715
X66040Y-635
X66040Y-6350
X66675Y11430
X66675Y6350
X66675Y-1270
X66675Y-6985
X67310Y6985
X67310Y-1905
X67310Y-7620
X67945Y15240
X67945Y7620
X67945Y-2540
X67945Y-8255
X68580Y8255
X68580Y-3175
X68580Y-8890
X69215Y13970
X69215Y8890
X69215Y-3810
X69215Y-9525
X69850Y14605
X69850Y9525
X69850Y-4445
X69850Y-10160
X70485Y15240
X70485Y10160
X70485Y-5080
X70485Y-10795
X71120Y17780
X71120Y15875
X71120Y10795
X71120Y-5715
X71120Y-11430
X71755Y11430
X71755Y-6350
X71755Y-12065
X72390Y21590
X72390Y17145
X72390Y-6985
X72390Y-12700
X73025Y-7620
X73025Y-13335
X73660Y31115
X73660Y27305
X73660Y-8255
X73660Y-13970
X74295Y19050
X74295Y13970
X74295Y-8890
X74295Y-14605
X74930Y19685
X74930Y14605
X74930Y-9525
X74930Y-15240
X75565Y20320
X75565Y-10160
X75565Y-15875
X76200Y15240
X76200Y4445
X76200Y-10795
X76200Y-16510
X76835Y15875
X76835Y-11430
X76835Y-17145
X77470Y36195
X77470Y16510
X77470Y-12065
X77470Y-17780
X78105Y17145
X78105Y-12700
X78715Y40475
X78740Y17780
X78740Y-7620
X78740Y-13335
X78740Y-17780
X79375Y20320
X79375Y18415
X79375Y-13970
X79639Y-4181
X80010Y-10160
X80010Y-17780
X80645Y28575
X80645Y18415
X80645Y-6350
X80645Y-13970
X81280Y41910
X81280Y27940
X81280Y22860
X81280Y21590
X81280Y20320
X81280Y19050
X81280Y13335
X81280Y-17780
X81801Y-4331
X81915Y41085
X81915Y38100
X81915Y28575
X81915Y24130
X81915Y12700
X81915Y8890
X81915Y7620
X81915Y6350
X81915Y5080
X81915Y3810
X81915Y1270
X81915Y-13970
X81915Y-13970
X82550Y27940
X82550Y23495
X82550Y13335
X82550Y3175
X82550Y-17780
X83185Y28575
X83185Y24130
X83185Y12700
X83185Y2540
X83185Y-9525
X83185Y-13970
X83299Y-4559
X83359Y-6176
X83820Y27940
X83820Y23495
X83820Y13335
X83820Y-17780
X84455Y28575
X84455Y24130
X84455Y12700
X84455Y1270
X84455Y-13970
X85090Y27940
X85090Y23495
X85090Y13335
X85090Y635
X85090Y-17780
X85725Y28575
X85725Y24130
X85725Y12700
X85725Y8890
X85725Y7620
X85725Y6350
X85725Y5080
X85725Y0
X85725Y-2540
X85725Y-13970
X86360Y27940
X86360Y4445
X86360Y-17780
X86995Y20320
X86995Y3810
X86995Y-13970
X87630Y28575
X87630Y4445
X87630Y-17780
X88265Y44450
X88265Y3810
X88265Y0
X88265Y-13970
X88900Y4445
X88900Y-635
X88900Y-6985
X88900Y-17780
X89535Y42545
X89535Y31750
X89535Y3810
X89535Y0
X89535Y-5080
X89535Y-10795
X89535Y-13970
X90170Y-635
X90170Y-17780
X90805Y41275
X90805Y0
X90805Y-10795
X90805Y-13970
X91440Y38735
X91440Y31750
X91440Y27940
X91440Y-17780
X92075Y36830
X92075Y3810
X92075Y-8255
X92075Y-10795
X92075Y-13970
X92710Y35560
X92710Y4445
X92710Y-17780
X93345Y34925
X93345Y3810
X93345Y-10795
X93345Y-13970
X93529Y40456
X93980Y35560
X93980Y4445
X93980Y0
X93980Y-17780
X94615Y34925
X94615Y33020
X94615Y31750
X94615Y30480
X94615Y29210
X94615Y27940
X94615Y22225
X94615Y20955
X94615Y19685
X94615Y18415
X94615Y17145
X94615Y15875
X94615Y14605
X94615Y13335
X94615Y8890
X94615Y3810
X94615Y-10795
X94615Y-13970
X95250Y35560
X95250Y33655
X95250Y32385
X95250Y31115
X95250Y29845
X95250Y28575
X95250Y27305
X95250Y22860
X95250Y21590
X95250Y20320
X95250Y19050
X95250Y17780
X95250Y16510
X95250Y15240
X95250Y13970
X95250Y12700
X95250Y8255
X95250Y4445
X95250Y-17780
X95885Y38100
X95885Y34925
X95885Y8890
X95885Y3810
X95885Y-5715
X95885Y-10795
X95885Y-13970
X96520Y35560
X96520Y8255
X96520Y4445
X96520Y-17780
X97155Y38100
X97155Y34925
X97155Y8890
X97155Y3810
X97155Y0
X97155Y-10160
X97155Y-13970
X97790Y38735
X97790Y35560
X97790Y4445
X97790Y-635
X97790Y-5715
X97790Y-7620
X97790Y-17780
X98425Y38100
X98425Y34925
X98425Y9525
X98425Y3810
X98425Y0
X98425Y-8890
X98425Y-13970
X99060Y38735
X99060Y35560
X99060Y30480
X99060Y29210
X99060Y27940
X99060Y26670
X99060Y25400
X99060Y24130
X99060Y20955
X99060Y19685
X99060Y18415
X99060Y17145
X99060Y15875
X99060Y14605
X99060Y13335
X99060Y12065
X99060Y10795
X99060Y7620
X99060Y-635
X99060Y-4445
X99060Y-17780
X99695Y38100
X99695Y34925
X99695Y31115
X99695Y29845
X99695Y28575
X99695Y27305
X99695Y26035
X99695Y24765
X99695Y20320
X99695Y19050
X99695Y17780
X99695Y16510
X99695Y15240
X99695Y13970
X99695Y12700
X99695Y11430
X99695Y9525
X99695Y0
X99695Y-7620
X99695Y-13970
X100330Y38735
X100330Y35560
X100330Y30480
X100330Y-635
X100330Y-3175
X100330Y-17780
X100965Y38100
X100965Y34925
X100965Y31115
X100965Y3810
X100965Y0
X100965Y-6350
X100965Y-13970
X101600Y38735
X101600Y35560
X101600Y30480
X101600Y4445
X101600Y-635
X101600Y-1905
X101600Y-17780
X102235Y38100
X102235Y34925
X102235Y31115
X102235Y3810
X102235Y0
X102235Y-5080
X102235Y-13970
X102870Y38735
X102870Y35560
X102870Y30480
X102870Y4445
X102870Y-635
X102870Y-17780
X103505Y38100
X103505Y34925
X103505Y31115
X103505Y3810
X103505Y0
X103505Y-3810
X103505Y-13970
X104140Y43180
X104140Y41275
X104140Y40005
X104140Y38735
X104140Y35560
X104140Y30480
X104140Y4445
X104140Y-17780
X104775Y41910
X104775Y40640
X104775Y39370
X104775Y38100
X104775Y34925
X104775Y31115
X104775Y3810
X104775Y-2540
X104775Y-13970
X105410Y35560
X105410Y30480
X105410Y29210
X105410Y-13335
X105410Y-17780
X106045Y34925
X106045Y31115
X106045Y29845
X106045Y28575
X106045Y19685
X106045Y3810
X106045Y-1270
X106045Y-12700
X106680Y18415
X106680Y-1905
X106680Y-12065
X106680Y-17780
X107315Y44450
X107315Y43180
X107315Y41910
X107315Y40640
X107315Y39370
X107315Y38100
X107315Y17780
X107315Y-2540
X107315Y-11430
X107950Y42545
X107950Y41275
X107950Y40005
X107950Y38735
X107950Y36830
X107950Y30480
X107950Y17145
X107950Y-3175
X107950Y-16510
X108585Y-15875
X109220Y36830
X109220Y35560
X109220Y18415
X109220Y-15240
X109855Y31115
X109855Y29845
X109855Y28575
X109855Y20955
X109855Y-8890
X109855Y-14605
X110490Y36195
X110490Y30480
X110490Y29210
X110490Y20320
X110490Y1270
X110490Y-8255
X110490Y-13970
X111125Y37465
X111125Y29845
X111125Y-7620
X111125Y-13335
X111760Y12700
X111760Y0
X111760Y-6985
X111760Y-12700
X112395Y32385
X112395Y-6350
X112395Y-12065
X113030Y31750
X113030Y29845
X113030Y-5715
X113030Y-11430
X113665Y31115
X113665Y-5080
X113665Y-10795
X114300Y31750
X114300Y-4445
X114300Y-10160
X114935Y31115
X114935Y11430
X114935Y-3810
X114935Y-9525
X115570Y19685
X115570Y12065
X115570Y-8890
X116205Y31115
X116205Y19050
X116205Y12700
X116205Y-8255
X116840Y29845
X116840Y28575
X116840Y18415
X116840Y17145
X116840Y15875
X116840Y14605
X116840Y13335
X116840Y3810
X116840Y-7620
X117475Y29210
X117475Y21590
X117475Y6985
X117475Y3175
X117475Y-6985
X118110Y22225
X118110Y12700
X118110Y7620
X118110Y3810
X118110Y-6350
X118745Y22860
X118745Y6985
X118745Y3175
X119380Y15240
X119380Y13335
X119380Y12065
X119380Y10795
X119380Y9525
X119380Y8255
X119380Y3810
X120015Y24130
X120015Y13970
X120015Y12700
X120015Y11430
X120015Y10160
X120015Y8890
X120015Y4445
X120650Y24765
X120650Y18415
X120650Y5080
X121285Y25400
X121285Y5715
X121920Y26035
X121920Y18415
X121920Y5080
X122555Y4445
X123190Y18415
X123190Y3810
T3
X18300Y7260
X18300Y4760
X30300Y8760
X32800Y8760
X124460Y28670
X124460Y26670
T4
X6350Y-8890
X8850Y-8890
X11350Y-8890
X13850Y-8890
X16350Y-8890
X20520Y46990
X23020Y46990
X25520Y46990
X28020Y46990
X30520Y46990
X33020Y46990
T5
X-1905Y42545
X-1905Y40005
X-1905Y37465
X-1905Y34925
X-1905Y32385
X-1905Y29845
X635Y46355
X3175Y46355
X5715Y46355
X7750Y11990
X7750Y9450
X8255Y46355
X10795Y46355
X13335Y46355
X15875Y32385
X15875Y29885
X15875Y27385
X28575Y-8890
X31075Y-8890
X43815Y-8890
X46315Y-8890
X99735Y46990
X102235Y46990
X124460Y21510
X124460Y16510
X124460Y10715
X124460Y5715
T6
X59660Y40780
X59660Y35700
T7
X111335Y-3175
X114015Y44240
X114015Y37040
X118535Y-3175
T8
X-5535Y9875
X-5535Y4095
X-5410Y22085
X-5410Y16305
T9
X-8700Y52950
X-8700Y-15050
X59300Y52950
X59300Y-15050
X127300Y52950
X127300Y-15050
T2
G00X-9625Y11305
M15
G01X-8825Y11305
M16
G05
G00X-9625Y2665
M15
G01X-8825Y2665
M16
G05
G00X-9500Y23515
M15
G01X-8700Y23515
M16
G05
G00X-9500Y14875
M15
G01X-8700Y14875
M16
G05
G00X-5605Y11305
M15
G01X-4505Y11305
M16
G05
G00X-5605Y2665
M15
G01X-4505Y2665
M16
G05
G00X-5480Y23515
M15
G01X-4380Y23515
M16
G05
G00X-5480Y14875
M15
G01X-4380Y14875
M16
G05
G00X108185Y-8625
M15
G01X108185Y-9725
M16
G05
G00X120565Y47390
M15
G01X119465Y47390
M16
G05
G00X120565Y33890
M15
G01X119465Y33890
M16
G05
G00X121685Y-8625
M15
G01X121685Y-9725
M16
G05
T0
M30
